<svg xmlns="http://www.w3.org/2000/svg" viewBox="0 0 200 200">
  <defs>
    <radialGradient id="outerGradL" cx="50%" cy="35%" r="60%">
      <stop offset="0%" stop-color="#92d4fc"/>
      <stop offset="100%" stop-color="#419fd9"/>
    </radialGradient>
    <radialGradient id="innerGradL" cx="50%" cy="30%" r="65%">
      <stop offset="0%" stop-color="#ffffff"/>
      <stop offset="100%" stop-color="#e0f0ff"/>
    </radialGradient>
    <filter id="shadowL">
      <feDropShadow dx="0" dy="3" stdDeviation="4" flood-color="rgba(0,60,120,0.25)"/>
    </filter>
  </defs>
  <circle cx="100" cy="100" r="95" fill="url(#outerGradL)" filter="url(#shadowL)"/>
  <ellipse cx="80" cy="30" rx="35" ry="18" fill="rgba(255,255,255,0.3)" transform="rotate(-20,80,30)"/>
  <circle cx="100" cy="100" r="68" fill="url(#innerGradL)"/>
  <path d="M 60 130 C 60 105, 72 88, 85 88 C 91 88, 96 93, 100 100 C 104 93, 109 88, 115 88 C 128 88, 140 105, 140 130 L 130 130 C 130 110, 122 96, 115 96 C 110 96, 105 102, 100 112 C 95 102, 90 96, 85 96 C 78 96, 70 110, 70 130 Z"
        fill="url(#outerGradL)" opacity="0.88"/>
</svg>
